<svg fill="none" height="20" viewBox="0 0 168 20" width="168" xmlns="http://www.w3.org/2000/svg" xmlns:xlink="http://www.w3.org/1999/xlink"><linearGradient id="a" gradientUnits="userSpaceOnUse" x1="-.000001" x2="168" y1="5.31251" y2="5.31249"><stop offset="0" stop-color="#92278f"/><stop offset=".579898" stop-color="#c6168d"/><stop offset="1" stop-color="#ed1c24"/></linearGradient><path clip-rule="evenodd" d="m5.12977 10.625c-2.83309 0-5.12977-2.37849-5.12977-5.3125s2.29668-5.3125 5.12977-5.3125h29.49623v4.375h-28.85501c-.35413-.00001-.64122.41973-.64122.93749 0 .51777.28709.9375.64122.9375h28.85501v4.37501zm76.30533-5.3125c0 2.93401-2.2967 5.3125-5.1298 5.3125h-23.0839v-4.37501h22.4427c.3542 0 .6412-.41973.6412-.9375 0-.51776-.287-.9375-.6412-.93749l-24.3664-.00001v6.25001h-4.4885v-6.25-4.375h29.4961c2.8331 0 5.1298 2.37849 5.1298 5.3125zm6.4122 5.3125c-2.8331 0-5.1297-2.37849-5.1297-5.3125s2.2966-5.3125 5.1297-5.3125h29.4967v4.375 6.25h-4.489v-6.25001l-24.3665.00001c-.3541-.00001-.6412.41973-.6412.93749 0 .51777.2871.9375.6412.9375h22.4425v4.37501zm45.5267-5.3125c0 2.93401 2.297 5.3125 5.13 5.3125h23.084v-4.37501h-22.443c-.354 0-.641-.41973-.641-.9375 0-.51776.287-.9375.641-.93749l24.366-.00001v6.25001h4.489v-6.25-4.375h-29.496c-2.833 0-5.13 2.37849-5.13 5.3125zm-90.4122-.93749h2.5649v-4.37499315h-9.6183v4.37499315h2.5649v6.24999h4.4885zm80.7942 6.24999v-3.12499h3.847v3.12499h4.489v-10.62498262h-4.489v3.12500262h-3.847v-3.12500262h-4.489v10.62498262z" fill="url(#a)" fill-rule="evenodd"/><g fill="#012345"><path d="m112.247 18.916v1.084h-.675v-1.6987h.522c.347-.1102.521-.6632.521-1.6591v-2.1879h3.275v3.847h.729v1.6987h-.662v-1.084zm.696-.6147h2.279v-3.2323h-1.939v1.5467c0 .7492-.113 1.311-.34 1.6856z"/><path d="m117.761 14.4543h3.275v.6147h-2.607v1.2824h2.266v.6147h-2.266v1.3352h2.641v.6147h-3.309z"/><path d="m124.583 18.916h-2.279v-4.4617h2.152c.379 0 .693.1124.942.3371.254.2248.381.5068.381.8461 0 .379-.16.6874-.481.9254.214.1057.381.2555.502.4494.124.1939.187.4076.187.6412 0 .3569-.134.6588-.401.9055-.268.238-.602.357-1.003.357zm0-2.0028h-1.611v1.3881h1.611c.205 0 .374-.0661.508-.1983.138-.1322.207-.2975.207-.4958s-.069-.3635-.207-.4957c-.134-.1322-.303-.1983-.508-.1983zm-.127-1.8442h-1.484v1.2295h1.484c.183 0 .334-.0573.455-.1719.12-.119.18-.2666.18-.4428 0-.1763-.06-.3217-.18-.4363-.121-.119-.272-.1785-.455-.1785z"/><path d="m127.277 14.4543h3.275v.6147h-2.606v1.2824h2.266v.6147h-2.266v1.3352h2.64v.6147h-3.309z"/><path d="m131.626 18.916h-.174v-.6147h.174c.152 0 .272-.0419.361-.1256.227-.2071.341-.7249.341-1.5533v-2.1681h3.255v4.4617h-.668v-3.847h-1.919v1.5534c0 1.529-.456 2.2936-1.37 2.2936z"/><path d="m136.888 16.6885c0-.661.223-1.2119.668-1.6525.446-.4407 1.001-.661 1.665-.661s1.218.2203 1.664.661c.45.4451.675.9959.675 1.6525 0 .6521-.225 1.2007-.675 1.6458-.446.4407-1 .661-1.664.661s-1.219-.2203-1.665-.661c-.445-.4406-.668-.9893-.668-1.6458zm.688 0c0 .4759.156.8747.468 1.1963.316.3173.709.4759 1.177.4759.463 0 .853-.1586 1.169-.4759.317-.326.475-.7248.475-1.1963 0-.476-.158-.8748-.475-1.1964-.312-.3217-.702-.4826-1.169-.4826-.473 0-.865.1609-1.177.4826-.312.3128-.468.7116-.468 1.1964z"/><path d="m143.525 15.069v3.847h-.668v-4.4617h3.87v4.4617h-.668v-3.847z"/><path d="m148.858 18.916h-.668v-4.4617h.668l1.751 3.0472 1.752-3.0472h.668v4.4617h-.668v-3.1992l-1.531 2.6572h-.441l-1.531-2.6638z"/><path d="m154.488 14.4543h3.276v.6147h-2.607v1.2824h2.266v.6147h-2.266v1.3352h2.64v.6147h-3.309z"/><path d="m159.699 18.916h-.668v-4.4617h.668v1.8971h2.534v-1.8971h.668v4.4617h-.668v-1.9499h-2.534z"/><path d="m165.7 15.069h-1.631v-.6147h3.931v.6147h-1.631v3.847h-.669z"/></g></svg>