<svg width="54" height="27" viewBox="0 0 54 27" fill="none" xmlns="http://www.w3.org/2000/svg">
<g clip-path="url(#clip0)">
<path d="M0 1.51743C0 0.638917 0.6968 0 1.58715 0C2.51622 0 3.17431 0.638917 3.17431 1.51743C3.17431 2.43588 2.51622 3.07479 1.58715 3.07479C0.6968 3.07479 0 2.43588 0 1.51743Z" fill="#F0F1F2"/>
<path d="M0.269531 12.6412H2.86317V3.8561H0.269531V12.6412ZM10.3344 0.421875V4.8943C9.79243 4.17552 8.97953 3.69633 7.9343 3.69633C5.84393 3.69633 4.14064 5.53323 4.14064 8.24863C4.14064 10.9241 5.80519 12.8009 7.9343 12.8009C9.01823 12.8009 9.79243 12.3217 10.3344 11.6429V12.5613H12.928V0.421875H10.3344ZM8.5537 10.2452C7.54722 10.2452 6.77297 9.48653 6.77297 8.24863C6.77297 7.05067 7.54722 6.25202 8.5537 6.25202C9.56019 6.25202 10.3344 7.05067 10.3344 8.24863C10.3344 9.48653 9.56019 10.2452 8.5537 10.2452ZM19.896 3.89599V4.8943C19.3541 4.17552 18.5411 3.69633 17.4959 3.69633C15.4055 3.69633 13.7022 5.53323 13.7022 8.24863C13.7022 10.9241 15.3668 12.8009 17.4959 12.8009C18.5798 12.8009 19.3541 12.3217 19.896 11.6429V12.5613H22.4897V3.85606H19.896V3.89599ZM18.1153 10.2452C17.1088 10.2452 16.3346 9.48653 16.3346 8.24863C16.3346 7.05067 17.1088 6.25202 18.1153 6.25202C19.1218 6.25202 19.896 7.05067 19.896 8.24863C19.896 9.48653 19.1218 10.2452 18.1153 10.2452Z" fill="#F0F1F2"/>
<path d="M5.30196 13.9055C4.21803 13.9055 3.44383 14.3848 2.90188 15.1035V14.1052H0.269531V26.7638H2.86317V21.892C3.40512 22.5709 4.17933 23.0501 5.26326 23.0501C7.43107 23.0501 9.05692 21.1733 9.05692 18.4978C9.09562 15.7824 7.43107 13.9055 5.30196 13.9055ZM4.6826 20.4545C3.6761 20.4545 2.90188 19.6957 2.90188 18.4579C2.90188 17.2599 3.6761 16.4612 4.6826 16.4612C5.68908 16.4612 6.46329 17.2599 6.46329 18.4579C6.46329 19.6957 5.68908 20.4545 4.6826 20.4545ZM14.941 13.9055C13.8571 13.9055 13.0055 14.3848 12.5022 15.4629V14.1052H9.90857V22.8105H12.5022V19.0568C12.5022 17.0602 13.7022 16.7008 14.9023 16.7008C15.1345 16.7008 15.2507 16.7008 15.4055 16.7408V13.9854C15.2894 13.9455 15.1345 13.9055 14.941 13.9055ZM20.0121 13.9055C17.5733 13.9055 15.5991 15.8223 15.5991 18.4579C15.5991 21.0535 17.5346 23.0102 20.0121 23.0102C22.4896 23.0102 24.4252 21.0934 24.4252 18.4579C24.4252 15.8223 22.4509 13.9055 20.0121 13.9055ZM20.0121 16.4612C21.0186 16.4612 21.7929 17.2599 21.7929 18.4579C21.7929 19.6957 21.0186 20.4545 20.0121 20.4545C19.0056 20.4545 18.2314 19.6957 18.2314 18.4579C18.2314 17.2599 18.9669 16.4612 20.0121 16.4612ZM26.4769 9.99219C25.5865 9.99219 24.8897 10.6311 24.8897 11.5096C24.8897 12.4281 25.5865 13.067 26.4769 13.067C27.406 13.067 28.064 12.4281 28.064 11.5096C28.064 10.6311 27.406 9.99219 26.4769 9.99219ZM25.1994 26.8037H27.793V14.1052H25.1994V26.8037ZM33.0191 13.9055C30.3867 13.9055 28.5673 15.9022 28.5673 18.4579C28.5673 21.0135 30.3867 23.0102 33.0965 23.0102C34.9159 23.0102 36.6966 22.0917 37.2772 19.9354H34.6062C34.4126 20.5743 33.832 20.9336 33.1352 20.9336C32.2448 20.9336 31.3932 20.3746 31.2771 19.0169H37.4321C37.6644 16.1817 35.8062 13.9055 33.0191 13.9055ZM33.0191 15.9821C33.9481 15.9821 34.4901 16.581 34.6836 17.4196H31.3158C31.5093 16.581 32.09 15.9821 33.0191 15.9821ZM42.3097 23.0501C44.3613 23.0501 46.2971 21.8122 46.5679 19.3763H43.8969C43.7034 20.2149 43.0064 20.5343 42.3097 20.5343C41.2256 20.5343 40.529 19.6957 40.529 18.4579C40.529 17.22 41.1871 16.3814 42.3097 16.3814C43.0064 16.3814 43.6646 16.7008 43.8581 17.5394H46.529C46.2582 15.2233 44.3613 13.9055 42.2708 13.9055C39.6773 13.9055 37.8192 15.9022 37.8192 18.4579C37.8192 21.0135 39.716 23.0501 42.3097 23.0501ZM53.5744 20.0951C52.8393 20.3347 52.2972 20.5343 51.8325 20.5343C51.1747 20.5343 50.7488 20.135 50.7488 19.2964V16.6609H53.5744V14.1452H50.7488V11.7492L48.1552 12.3482V14.1452H46.7225V16.6609H48.1552V19.4562C48.1552 22.0518 49.742 23.0501 51.3682 23.0501C52.4134 23.0501 53.5359 22.6508 54.0003 22.2914L53.5744 20.0951Z" fill="#F0F1F2"/>
</g>
<defs>
<clipPath id="clip0">
<rect width="54" height="27" fill="white"/>
</clipPath>
</defs>
</svg>
