<?xml version="1.0" encoding="utf-8"?>
<!-- Generator: Adobe Illustrator 25.0.0, SVG Export Plug-In . SVG Version: 6.00 Build 0)  -->
<svg version="1.1" id="Layer_1" xmlns="http://www.w3.org/2000/svg" xmlns:xlink="http://www.w3.org/1999/xlink" x="0px" y="0px"
	 viewBox="0 0 50.5 17" style="enable-background:new 0 0 50.5 17; fill: #f2aaaa;" xml:space="preserve">
<path id="path0_fill" d="M47.2,0H0v3.3h1.9V1.9h43.3v1.8l1.9-0.5L47.2,0L47.2,0z"/>
<path id="path1_fill" d="M45.3,12.3v2.8H1.9v-1.9H0V17h47.2v-3.5C46.2,13.4,45.6,12.9,45.3,12.3z"/>
<path d="M0,12.2V4.3h1.9v7.9H0z"/>
<path d="M7.8,3.3h2v8.9h-2v-0.7c-0.5,0.6-1.1,0.8-1.8,0.8c-0.8,0-1.5-0.3-2.1-0.9C3.4,10.8,3.1,10,3.1,9.1c0-1,0.3-1.8,0.8-2.4
	C4.5,6,5.2,5.7,6,5.7c0.8,0,1.4,0.3,1.8,0.9V3.3z M5.5,10.1c0.3,0.3,0.6,0.4,1,0.4s0.7-0.1,1-0.4c0.3-0.3,0.4-0.6,0.4-1.1
	c0-0.4-0.1-0.8-0.4-1.1c-0.3-0.3-0.6-0.4-1-0.4S5.8,7.7,5.5,8C5.3,8.3,5.1,8.6,5.1,9.1C5.1,9.5,5.3,9.8,5.5,10.1z"/>
<path d="M15.5,5.9h2l0,6.4h-2v-0.7c-0.5,0.6-1.1,0.8-1.8,0.8c-0.8,0-1.5-0.3-2.1-0.9c-0.5-0.6-0.8-1.4-0.8-2.4c0-1,0.3-1.8,0.8-2.4
	c0.6-0.6,1.2-0.9,2-0.9c0.8,0,1.4,0.3,1.8,0.9V5.9z M13.2,10.1c0.3,0.3,0.6,0.4,1,0.4s0.7-0.1,1-0.4c0.3-0.3,0.4-0.6,0.4-1.1
	c0-0.4-0.1-0.8-0.4-1.1s-0.6-0.4-1-0.4s-0.7,0.1-1,0.4c-0.3,0.3-0.4,0.6-0.4,1.1C12.8,9.5,13,9.8,13.2,10.1z"/>
<g>
	<path d="M22.7,4.9c-0.6,0-1,0.3-1,1v0h1.9v1.9h-1.9v4.5h-2V7.7h-1.1V5.9h1.1V5.7c0-0.9,0.3-1.5,0.8-1.9c0.5-0.4,1.2-0.6,1.9-0.6
		c0.6,0,1.1,0.1,1.6,0.3l-0.3,1.6L23.5,5C23.2,4.9,23,4.9,22.7,4.9z"/>
	<path d="M28.6,5.7c0.1,0,0.3,0,0.4,0v2c-0.2,0-0.3,0-0.4,0c-0.3,0-0.5,0-0.7,0.1c-0.2,0-0.4,0.1-0.6,0.2c-0.2,0.1-0.3,0.3-0.4,0.5
		c-0.1,0.2-0.1,0.5-0.1,0.9v2.8h-2V5.9h2v1C27.1,6.1,27.7,5.7,28.6,5.7z"/>
	<path d="M30.5,6.7c0.6-0.6,1.4-1,2.4-1c0.9,0,1.7,0.3,2.4,1c0.6,0.6,1,1.4,1,2.4c0,1-0.3,1.8-1,2.4c-0.6,0.6-1.4,1-2.4,1
		c-0.9,0-1.7-0.3-2.4-1c-0.6-0.6-1-1.4-1-2.4S29.9,7.3,30.5,6.7z M33.8,8c-0.3-0.3-0.6-0.4-1-0.4c-0.4,0-0.7,0.1-1,0.4
		c-0.3,0.3-0.4,0.6-0.4,1.1c0,0.4,0.1,0.8,0.4,1.1c0.3,0.3,0.6,0.4,1,0.4c0.4,0,0.7-0.1,1-0.4c0.3-0.3,0.4-0.6,0.4-1.1
		C34.2,8.6,34.1,8.3,33.8,8z"/>
	<path d="M41.1,5.7c0.7,0,1.3,0.2,1.7,0.7c0.4,0.5,0.6,1.1,0.6,1.9v4h-2V8.7c0-0.4-0.1-0.6-0.2-0.8c-0.1-0.2-0.4-0.3-0.8-0.3
		c-0.8,0-1.2,0.4-1.2,1.3v3.4h-2V5.9h2v0.7C39.7,6,40.3,5.7,41.1,5.7z"/>
	<path d="M49.3,10.2l0.3,1.6c-0.2,0.1-0.5,0.3-0.9,0.4s-0.8,0.2-1.1,0.2c-0.7,0-1.3-0.2-1.7-0.6c-0.5-0.4-0.7-1.1-0.7-2V7.7h-1.1
		V5.9h1.1V4.6l1.9-0.4v1.7h2.2v1.9h-2.1v1.9c0,0.6,0.3,0.9,0.8,0.9C48.2,10.6,48.7,10.5,49.3,10.2z"/>
</g>
</svg>
