<svg width="152" height="18" viewBox="0 0 152 18" fill="none" xmlns="http://www.w3.org/2000/svg">
<path fill-rule="evenodd" clip-rule="evenodd" d="M5.0101 9.54984C2.46369 9.54984 0.399414 7.41204 0.399414 4.77492C0.399414 2.1378 2.46369 0 5.0101 0H31.5216V3.93229H5.58644C5.26814 3.93229 5.0101 4.30955 5.0101 4.77492C5.0101 5.24029 5.26814 5.61755 5.58644 5.61755H31.5216V9.54984L5.0101 9.54984ZM73.5941 4.77492C73.5941 7.41204 71.5298 9.54984 68.9834 9.54984L48.2353 9.54984V5.61755H68.4071C68.7253 5.61755 68.9834 5.24029 68.9834 4.77492C68.9834 4.30955 68.7253 3.93229 68.4071 3.93229L46.5063 3.93229V9.54984H42.4719L42.4719 3.93229V0H68.9834C71.5298 0 73.5941 2.1378 73.5941 4.77492ZM79.3574 9.54984C76.811 9.54984 74.7467 7.41204 74.7467 4.77492C74.7467 2.1378 76.811 0 79.3574 0H105.869V3.93229V9.54984H101.835V3.93229L79.9338 3.93229C79.6155 3.93229 79.3574 4.30955 79.3574 4.77492C79.3574 5.24029 79.6155 5.61755 79.9338 5.61755H100.106V9.54984L79.3574 9.54984ZM120.277 4.77492C120.277 7.41204 122.342 9.54984 124.888 9.54984L145.636 9.54984V5.61755H125.464C125.146 5.61755 124.888 5.24029 124.888 4.77492C124.888 4.30955 125.146 3.93229 125.464 3.93229L147.365 3.93229V9.54984H151.399V3.93229V0H124.888C122.342 0 120.277 2.1378 120.277 4.77492ZM39.0139 3.9323L41.3193 3.9323V1.51411e-05H32.6742V3.9323L34.9796 3.9323V9.54984H39.0139V3.9323ZM111.632 9.54986V6.74108L115.09 6.74108V9.54986H119.125V1.56208e-05H115.09V2.80879L111.632 2.80879V1.56208e-05H107.598V9.54986H111.632Z" fill="#677B8F"/>
<path d="M101.289 17.0019V17.9762H100.682V16.4494H101.15C101.463 16.3504 101.619 15.8533 101.619 14.9582V12.9917H104.563V16.4494H105.218V17.9762H104.623V17.0019H101.289ZM101.913 16.4494H103.962V13.5442H102.22V14.9344C102.22 15.6077 102.118 16.1127 101.913 16.4494Z" fill="#677B8F"/>
<path d="M106.244 12.9917H109.188V13.5442H106.845V14.6968H108.882V15.2493H106.845V16.4494H109.218V17.0019H106.244V12.9917Z" fill="#677B8F"/>
<path d="M112.376 17.0019H110.327V12.9917H112.262C112.602 12.9917 112.885 13.0927 113.109 13.2947C113.337 13.4967 113.451 13.7502 113.451 14.0551C113.451 14.3958 113.307 14.673 113.019 14.8869C113.211 14.9819 113.361 15.1166 113.469 15.2909C113.582 15.4651 113.638 15.6572 113.638 15.8672C113.638 16.188 113.518 16.4593 113.277 16.6811C113.037 16.8949 112.736 17.0019 112.376 17.0019ZM112.376 15.2018H110.928V16.4494H112.376C112.56 16.4494 112.712 16.39 112.833 16.2711C112.957 16.1523 113.019 16.0038 113.019 15.8256C113.019 15.6473 112.957 15.4988 112.833 15.38C112.712 15.2612 112.56 15.2018 112.376 15.2018ZM112.262 13.5442H110.928V14.6492H112.262C112.426 14.6492 112.562 14.5978 112.67 14.4948C112.779 14.3878 112.833 14.2552 112.833 14.0967C112.833 13.9383 112.779 13.8076 112.67 13.7046C112.562 13.5977 112.426 13.5442 112.262 13.5442Z" fill="#677B8F"/>
<path d="M114.798 12.9917H117.741V13.5442H115.398V14.6968H117.435V15.2493H115.398V16.4494H117.771V17.0019H114.798V12.9917Z" fill="#677B8F"/>
<path d="M118.706 17.0019H118.55V16.4494H118.706C118.843 16.4494 118.951 16.4117 119.031 16.3365C119.235 16.1503 119.337 15.685 119.337 14.9404V12.9917H122.263V17.0019H121.662V13.5442H119.938V14.9404C119.938 16.3147 119.527 17.0019 118.706 17.0019Z" fill="#677B8F"/>
<path d="M123.436 14.9998C123.436 14.4057 123.636 13.9106 124.036 13.5145C124.437 13.1184 124.936 12.9204 125.532 12.9204C126.129 12.9204 126.628 13.1184 127.028 13.5145C127.433 13.9145 127.635 14.4096 127.635 14.9998C127.635 15.5859 127.433 16.079 127.028 16.4791C126.628 16.8751 126.129 17.0732 125.532 17.0732C124.936 17.0732 124.437 16.8751 124.036 16.4791C123.636 16.083 123.436 15.5899 123.436 14.9998ZM124.054 14.9998C124.054 15.4275 124.195 15.786 124.475 16.0751C124.759 16.3603 125.112 16.5028 125.532 16.5028C125.949 16.5028 126.299 16.3603 126.584 16.0751C126.868 15.782 127.01 15.4236 127.01 14.9998C127.01 14.572 126.868 14.2136 126.584 13.9244C126.303 13.6353 125.953 13.4907 125.532 13.4907C125.108 13.4907 124.755 13.6353 124.475 13.9244C124.195 14.2056 124.054 14.5641 124.054 14.9998Z" fill="#677B8F"/>
<path d="M129.402 13.5442V17.0019H128.801V12.9917H132.279V17.0019H131.679V13.5442H129.402Z" fill="#677B8F"/>
<path d="M134.195 17.0019H133.594V12.9917H134.195L135.769 15.7305L137.343 12.9917H137.944V17.0019H137.343V14.1264L135.967 16.5147H135.57L134.195 14.1205V17.0019Z" fill="#677B8F"/>
<path d="M139.255 12.9917H142.199V13.5442H139.856V14.6968H141.893V15.2493H139.856V16.4494H142.229V17.0019H139.255V12.9917Z" fill="#677B8F"/>
<path d="M143.939 17.0019H143.338V12.9917H143.939V14.6968H146.216V12.9917H146.817V17.0019H146.216V15.2493H143.939V17.0019Z" fill="#677B8F"/>
<path d="M149.333 13.5442H147.867V12.9917H151.399V13.5442H149.933V17.0019H149.333V13.5442Z" fill="#677B8F"/>
</svg>
