<svg width="169" height="23" viewBox="0 0 169 23" fill="none" xmlns="http://www.w3.org/2000/svg">
<path fill-rule="evenodd" clip-rule="evenodd" d="M5.12977 10.625C2.29668 10.625 0 8.24651 0 5.3125C0 2.37849 2.29668 0 5.12977 0H34.626V4.375H5.77099C5.41686 4.37499 5.12977 4.79473 5.12977 5.31249C5.12977 5.83026 5.41686 6.24999 5.77099 6.24999H34.626V10.625L5.12977 10.625ZM81.4351 5.3125C81.4351 8.24651 79.1384 10.625 76.3053 10.625L53.2214 10.625V6.24999H75.6641C76.0183 6.24999 76.3053 5.83026 76.3053 5.31249C76.3053 4.79473 76.0183 4.37499 75.6641 4.375L51.2977 4.37499V10.625H46.8092L46.8092 4.375V0H76.3053C79.1384 0 81.4351 2.37849 81.4351 5.3125ZM87.8473 10.625C85.0142 10.625 82.7176 8.24651 82.7176 5.3125C82.7176 2.37849 85.0142 0 87.8473 0H117.344V4.375V10.625H112.855V4.37499L88.4885 4.375C88.1344 4.37499 87.8473 4.79473 87.8473 5.31249C87.8473 5.83026 88.1344 6.24999 88.4885 6.24999H110.931V10.625L87.8473 10.625ZM133.374 5.3125C133.374 8.24651 135.671 10.625 138.504 10.625L161.588 10.625V6.24999H139.145C138.791 6.24999 138.504 5.83026 138.504 5.31249C138.504 4.79473 138.791 4.37499 139.145 4.375L163.511 4.37499V10.625H168V4.375V0H138.504C135.671 0 133.374 2.37849 133.374 5.3125ZM42.9618 4.37501L45.5267 4.37501V1.68457e-05H35.9084V4.37501L38.4733 4.37501V10.625H42.9618V4.37501ZM123.756 10.625V7.50001L127.603 7.50001V10.625H132.092V1.73795e-05H127.603V3.12502L123.756 3.12502V1.73795e-05H119.267V10.625H123.756Z" fill="url(#paint0_linear)"/>
<path d="M112.247 18.916V20H111.572V18.3013H112.094C112.441 18.1911 112.615 17.6381 112.615 16.6422V14.4543H115.89V18.3013H116.619V20H115.957V18.916H112.247ZM112.943 18.3013H115.222V15.069H113.283V16.6157C113.283 17.3649 113.17 17.9267 112.943 18.3013Z" fill="#012345"/>
<path d="M117.761 14.4543H121.036V15.069H118.429V16.3514H120.695V16.9661H118.429V18.3013H121.07V18.916H117.761V14.4543Z" fill="#012345"/>
<path d="M124.583 18.916H122.304V14.4543H124.456C124.835 14.4543 125.149 14.5667 125.398 14.7914C125.652 15.0162 125.779 15.2982 125.779 15.6375C125.779 16.0165 125.619 16.3249 125.298 16.5629C125.512 16.6686 125.679 16.8184 125.8 17.0123C125.924 17.2062 125.987 17.4199 125.987 17.6535C125.987 18.0104 125.853 18.3123 125.586 18.559C125.318 18.797 124.984 18.916 124.583 18.916ZM124.583 16.9132H122.972V18.3013H124.583C124.788 18.3013 124.957 18.2352 125.091 18.103C125.229 17.9708 125.298 17.8055 125.298 17.6072C125.298 17.4089 125.229 17.2437 125.091 17.1115C124.957 16.9793 124.788 16.9132 124.583 16.9132ZM124.456 15.069H122.972V16.2985H124.456C124.639 16.2985 124.79 16.2412 124.911 16.1266C125.031 16.0076 125.091 15.86 125.091 15.6838C125.091 15.5075 125.031 15.3621 124.911 15.2475C124.79 15.1285 124.639 15.069 124.456 15.069Z" fill="#012345"/>
<path d="M127.277 14.4543H130.552V15.069H127.946V16.3514H130.212V16.9661H127.946V18.3013H130.586V18.916H127.277V14.4543Z" fill="#012345"/>
<path d="M131.626 18.916H131.452V18.3013H131.626C131.778 18.3013 131.898 18.2594 131.987 18.1757C132.214 17.9686 132.328 17.4508 132.328 16.6224V14.4543H135.583V18.916H134.915V15.069H132.996V16.6224C132.996 18.1514 132.54 18.916 131.626 18.916Z" fill="#012345"/>
<path d="M136.888 16.6885C136.888 16.0275 137.111 15.4766 137.556 15.036C138.002 14.5953 138.557 14.375 139.221 14.375C139.885 14.375 140.439 14.5953 140.885 15.036C141.335 15.4811 141.56 16.0319 141.56 16.6885C141.56 17.3406 141.335 17.8892 140.885 18.3343C140.439 18.775 139.885 18.9953 139.221 18.9953C138.557 18.9953 138.002 18.775 137.556 18.3343C137.111 17.8937 136.888 17.345 136.888 16.6885ZM137.576 16.6885C137.576 17.1644 137.732 17.5632 138.044 17.8848C138.36 18.2021 138.753 18.3607 139.221 18.3607C139.684 18.3607 140.074 18.2021 140.39 17.8848C140.707 17.5588 140.865 17.16 140.865 16.6885C140.865 16.2125 140.707 15.8137 140.39 15.4921C140.078 15.1704 139.688 15.0095 139.221 15.0095C138.748 15.0095 138.356 15.1704 138.044 15.4921C137.732 15.8049 137.576 16.2037 137.576 16.6885Z" fill="#012345"/>
<path d="M143.525 15.069V18.916H142.857V14.4543H146.727V18.916H146.059V15.069H143.525Z" fill="#012345"/>
<path d="M148.858 18.916H148.19V14.4543H148.858L150.609 17.5015L152.361 14.4543H153.029V18.916H152.361V15.7168L150.83 18.374H150.389L148.858 15.7102V18.916Z" fill="#012345"/>
<path d="M154.488 14.4543H157.764V15.069H155.157V16.3514H157.423V16.9661H155.157V18.3013H157.797V18.916H154.488V14.4543Z" fill="#012345"/>
<path d="M159.699 18.916H159.031V14.4543H159.699V16.3514H162.233V14.4543H162.901V18.916H162.233V16.9661H159.699V18.916Z" fill="#012345"/>
<path d="M165.7 15.069H164.069V14.4543H168V15.069H166.369V18.916H165.7V15.069Z" fill="#012345"/>
<rect x="91" y="13" width="78" height="10" fill="#FCFCFC"/>
<path d="M92.7304 18.8999V14.4549H93.4416V16.5822L95.3021 14.4549H96.2102L94.3115 16.6266L96.3372 18.8999H95.4291L93.4416 16.6711V18.8999H92.7304ZM97.8765 18.8999H97.1272L99.0512 14.4549H99.6291L101.559 18.8999H100.81L100.416 17.9855H98.2702L97.8765 18.8999ZM100.137 17.3251L99.3433 15.4646L98.5496 17.3251H100.137ZM102.694 14.4549H105.742V15.1153H103.405V16.1059H104.656C105.084 16.1059 105.437 16.2393 105.716 16.506C106 16.7727 106.142 17.105 106.142 17.5029C106.142 17.9008 106 18.2332 105.716 18.4999C105.429 18.7666 105.075 18.8999 104.656 18.8999H102.694V14.4549ZM103.405 16.7663V18.2395H104.656C104.868 18.2395 105.043 18.1697 105.183 18.03C105.327 17.8903 105.399 17.7146 105.399 17.5029C105.399 17.2912 105.327 17.1156 105.183 16.9759C105.043 16.8362 104.868 16.7663 104.656 16.7663H103.405ZM110.651 15.6741L108.162 18.8999H107.508V14.4549H108.219V17.6998L110.715 14.4549H111.369V18.8999H110.651V15.6741ZM113.567 18.8999H112.856V14.4549H113.567V16.3218H115.974V14.4549H116.691V18.8999H115.974V16.9822H113.567V18.8999ZM118.178 14.4549H121.417V15.1153H118.89V16.3218H121.08V16.9822H118.89V18.2395H121.449V18.8999H118.178V14.4549ZM124.04 15.1153H122.472V14.4549H126.32V15.1153H124.751V18.8999H124.04V15.1153ZM130.561 15.1153V18.8999H129.849V14.4549H133.685V18.8999H132.967V15.1153H130.561ZM135.572 18.8999H134.823L136.747 14.4549H137.325L139.255 18.8999H138.506L138.112 17.9855H135.966L135.572 18.8999ZM137.833 17.3251L137.039 15.4646L136.245 17.3251H137.833ZM141.101 17.2616V18.8999H140.39V14.4549H142.358C142.781 14.4549 143.135 14.5883 143.419 14.855C143.706 15.1217 143.85 15.4561 143.85 15.8583C143.85 16.2604 143.706 16.5949 143.419 16.8616C143.135 17.1283 142.781 17.2616 142.358 17.2616H141.101ZM142.358 15.1153H141.101V16.6012H142.358C142.57 16.6012 142.748 16.5314 142.891 16.3917C143.035 16.2477 143.107 16.0699 143.107 15.8583C143.107 15.6466 143.035 15.4709 142.891 15.3312C142.748 15.1873 142.57 15.1153 142.358 15.1153ZM146.363 15.1153H144.795V14.4549H148.643V15.1153H147.074V18.8999H146.363V15.1153ZM150.574 18.8999H149.863V14.4549H150.574V16.3218H152.981V14.4549H153.699V18.8999H152.981V16.9822H150.574V18.8999ZM155.186 14.4549H158.424V15.1153H155.897V16.3218H158.088V16.9822H155.897V18.2395H158.456V18.8999H155.186V14.4549ZM160.457 17.2616V18.8999H159.746V14.4549H161.714C162.138 14.4549 162.491 14.5883 162.775 14.855C163.063 15.1217 163.207 15.4561 163.207 15.8583C163.207 16.2604 163.063 16.5949 162.775 16.8616C162.491 17.1283 162.138 17.2616 161.714 17.2616H160.457ZM161.714 15.1153H160.457V16.6012H161.714C161.926 16.6012 162.104 16.5314 162.248 16.3917C162.392 16.2477 162.464 16.0699 162.464 15.8583C162.464 15.6466 162.392 15.4709 162.248 15.3312C162.104 15.1873 161.926 15.1153 161.714 15.1153ZM164.377 18.8999H163.628L165.552 14.4549H166.13L168.06 18.8999H167.311L166.917 17.9855H164.771L164.377 18.8999ZM166.638 17.3251L165.844 15.4646L165.051 17.3251H166.638Z" fill="#012345"/>
<defs>
<linearGradient id="paint0_linear" x1="-9.38773e-07" y1="5.31251" x2="168" y2="5.31249" gradientUnits="userSpaceOnUse">
<stop stop-color="#92278F"/>
<stop offset="0.579898" stop-color="#C6168D"/>
<stop offset="1" stop-color="#ED1C24"/>
</linearGradient>
</defs>
</svg>
