<svg width="14" height="14" viewBox="0 0 14 14" fill="none" xmlns="http://www.w3.org/2000/svg">
<path fill-rule="evenodd" clip-rule="evenodd" d="M3.59581 0.446657C3.92376 0.361396 4.27133 0.395327 4.57661 0.542413C4.88199 0.689554 5.1252 0.940371 5.26286 1.25015L6.37726 3.75974C6.37728 3.75979 6.37723 3.75968 6.37726 3.75974C6.50558 4.04859 6.5347 4.37197 6.45992 4.67907C6.38512 4.98623 6.21068 5.25996 5.96385 5.45748L5.15799 6.10195C5.87805 7.19024 6.81014 8.12232 7.89842 8.84238L8.54278 8.03667L9.01136 8.41141L8.54379 8.03541C8.74163 7.78939 9.01521 7.61565 9.32199 7.54119C9.62878 7.46674 9.95157 7.49575 10.2402 7.62371L12.7501 8.73824C13.0598 8.87591 13.3108 9.11918 13.458 9.42457C13.605 9.72983 13.639 10.0774 13.5537 10.4053C13.5537 10.4055 13.5538 10.4052 13.5537 10.4053L13.0033 12.5261C12.9147 12.8662 12.7043 13.1625 12.4121 13.3579C12.12 13.5533 11.7663 13.6346 11.4181 13.5866L11.4167 13.5864C8.6367 13.196 6.05932 11.9112 4.07425 9.92612C2.08918 7.94106 0.804348 5.36368 0.413994 2.58364L0.413733 2.58178C0.36598 2.23377 0.447366 1.88033 0.642504 1.58826C0.837642 1.29619 1.13301 1.08571 1.47279 0.996627L1.4745 0.996178L3.59581 0.446657C3.59569 0.446689 3.59593 0.446625 3.59581 0.446657ZM9.47894 8.78741C9.4788 8.78758 9.47908 8.78724 9.47894 8.78741L8.50235 10.0086C8.31607 10.2415 7.98697 10.3022 7.72982 10.1511C6.12683 9.20931 4.79106 7.87354 3.84925 6.27055C3.69816 6.0134 3.7589 5.68431 3.99182 5.49803L5.21408 4.52054C5.25384 4.48872 5.28194 4.44463 5.29399 4.39516C5.30603 4.34568 5.30135 4.29361 5.28067 4.24708L4.16627 1.73747C4.1441 1.68757 4.10492 1.64717 4.05573 1.62347C4.00654 1.59977 3.95053 1.59431 3.89769 1.60806L1.77714 2.15739C1.77694 2.15744 1.77733 2.15734 1.77714 2.15739C1.72139 2.17216 1.67235 2.20693 1.6403 2.2549C1.60826 2.30285 1.59483 2.36084 1.60251 2.41798C1.95682 4.93947 3.12229 7.27711 4.92278 9.0776C6.72332 10.8781 9.06104 12.0436 11.5826 12.3979C11.6395 12.4056 11.6973 12.3923 11.7451 12.3604C11.7929 12.3284 11.8273 12.2801 11.8419 12.2245C11.8419 12.2244 11.8418 12.2246 11.8419 12.2245L12.3922 10.1039C12.406 10.051 12.4006 9.99463 12.3769 9.94544C12.3532 9.8963 12.3129 9.85716 12.2631 9.83498M12.2631 9.83498L9.75377 8.72071C9.75375 8.7207 9.75379 8.72072 9.75377 8.72071C9.70703 8.7 9.65469 8.69528 9.60501 8.70734C9.55553 8.71935 9.51095 8.74783 9.47894 8.78741" fill="#344F6A"/>
</svg>
