<svg fill="none" xmlns="http://www.w3.org/2000/svg" viewBox="0 0 135 181"><path fill-rule="evenodd" clip-rule="evenodd" d="M0 14v152h29v15h6v-21H6v-35h18v-3H6V14h27V0H0v14zm75 31V8h9V5h40v3h2v28H95v9h35v69H67v8h-6v3h6v9h3v-17h60v59H70v-21h-3v21h-6v5h74V0H63v14h3v31h9z" fill="#CCD3DA"/><path d="M33.305 68.848V76H31.96v-8.4h7.248V76h-1.356v-7.152h-4.548zM40.688 76h-.444v-1.2h.36c.28 0 .488-.148.624-.444.136-.304.204-.816.204-1.536v-3.06h4.992V76h-1.248v-5.04H42.68v2.124c0 .976-.176 1.708-.528 2.196-.352.48-.84.72-1.464.72zM50.716 69.604c.808 0 1.5.276 2.076.828v-.672h1.248V76h-1.248v-.672a2.894 2.894 0 01-2.076.828c-.872 0-1.604-.312-2.196-.936-.584-.616-.876-1.396-.876-2.34s.292-1.724.876-2.34c.592-.624 1.324-.936 2.196-.936zm.132 1.248c-.536 0-.988.196-1.356.588-.368.376-.552.856-.552 1.44 0 .576.184 1.06.552 1.452a1.83 1.83 0 001.356.576c.544 0 1-.192 1.368-.576.368-.392.552-.876.552-1.452 0-.584-.184-1.064-.552-1.44a1.8 1.8 0 00-1.368-.588zM56.774 73.42V76h-1.248v-6.24h1.248v2.46h3.324v-2.46h1.248V76h-1.248v-2.58h-3.324zM67.41 71.86L63.882 76h-1.044v-6.24h1.248v4.164l3.528-4.164h1.044V76H67.41v-4.14zM71.41 78.7h-1.248v-8.94h1.248v.672a2.894 2.894 0 012.076-.828c.872 0 1.604.312 2.196.936.584.616.876 1.396.876 2.34s-.292 1.724-.876 2.34c-.592.624-1.324.936-2.196.936-.808 0-1.5-.276-2.076-.828V78.7zm1.932-7.848c-.536 0-.988.196-1.356.588-.368.376-.552.856-.552 1.44 0 .576.184 1.06.552 1.452.368.384.82.576 1.356.576.536 0 .992-.192 1.368-.576.368-.392.552-.876.552-1.452 0-.584-.184-1.064-.552-1.44a1.8 1.8 0 00-1.368-.588zM80.768 76.156c-.936 0-1.716-.312-2.34-.936-.624-.624-.936-1.404-.936-2.34 0-.936.312-1.716.936-2.34.624-.624 1.404-.936 2.34-.936.936 0 1.716.312 2.34.936.632.624.948 1.404.948 2.34 0 .936-.316 1.716-.948 2.34-.624.624-1.404.936-2.34.936zm0-1.248c.576 0 1.048-.192 1.416-.576.384-.392.576-.876.576-1.452s-.192-1.056-.576-1.44c-.368-.392-.84-.588-1.416-.588-.56 0-1.032.196-1.416.588-.376.392-.564.872-.564 1.44s.188 1.052.564 1.452c.384.384.856.576 1.416.576zM85.268 69.76h3.288c.488 0 .928.14 1.32.42.384.28.596.656.636 1.128 0 .592-.196 1.048-.588 1.368.592.352.888.836.888 1.452 0 .544-.192.992-.576 1.344-.376.352-.852.528-1.428.528h-3.54v-6.24zm1.248 3.528V74.8h2.292c.2 0 .364-.072.492-.216a.756.756 0 00.204-.54.756.756 0 00-.204-.54.629.629 0 00-.492-.216h-2.292zm2.04-2.328h-2.04v1.284h2.04a.633.633 0 00.66-.648.598.598 0 00-.192-.456.633.633 0 00-.468-.18zM97.42 76h-1.536l-2.712-3.228 2.46-3.012h1.524l-2.448 3.012L97.42 76zm-4.26-6.24V76h-1.248v-6.24h1.248zM100.79 69.604c.808 0 1.5.276 2.076.828v-.672h1.248V76h-1.248v-.672a2.894 2.894 0 01-2.076.828c-.872 0-1.604-.312-2.196-.936-.584-.616-.876-1.396-.876-2.34s.292-1.724.876-2.34c.592-.624 1.324-.936 2.196-.936zm.132 1.248c-.536 0-.988.196-1.356.588-.368.376-.552.856-.552 1.44 0 .576.184 1.06.552 1.452.376.384.828.576 1.356.576.544 0 1-.192 1.368-.576.368-.392.552-.876.552-1.452 0-.584-.184-1.064-.552-1.44a1.8 1.8 0 00-1.368-.588zM36.137 93.156c-.936 0-1.716-.312-2.34-.936-.624-.624-.936-1.404-.936-2.34 0-.936.312-1.716.936-2.34.624-.624 1.404-.936 2.34-.936.936 0 1.716.312 2.34.936.632.624.948 1.404.948 2.34 0 .936-.316 1.716-.948 2.34-.624.624-1.404.936-2.34.936zm0-1.248c.576 0 1.048-.192 1.416-.576.384-.392.576-.876.576-1.452s-.192-1.056-.576-1.44c-.368-.392-.84-.588-1.416-.588-.56 0-1.032.196-1.416.588-.376.392-.564.872-.564 1.44s.188 1.052.564 1.452c.384.384.856.576 1.416.576zM42.058 93v-5.04H39.85v-1.2h5.664v1.2h-2.208V93h-1.248zM52.18 88.572l-1.26.372c-.16-.336-.395-.6-.707-.792-.312-.2-.668-.3-1.068-.3-.56 0-1.032.196-1.416.588-.376.392-.564.872-.564 1.44s.188 1.052.564 1.452c.384.384.856.576 1.416.576.4 0 .756-.096 1.068-.288.312-.2.548-.468.708-.804l1.26.372a3.12 3.12 0 01-1.188 1.44c-.536.352-1.152.528-1.848.528-.936 0-1.716-.312-2.34-.936-.624-.624-.936-1.404-.936-2.34 0-.936.312-1.716.936-2.34.624-.624 1.404-.936 2.34-.936.696 0 1.312.18 1.848.54.544.352.94.828 1.188 1.428zM54.736 93.528l.276-.684-2.436-6.084h1.284l1.776 4.536 1.836-4.536h1.284l-2.94 7.188c-.248.608-.572 1.052-.972 1.332s-.912.42-1.536.42h-.264v-1.2h.264c.368 0 .664-.076.888-.228.224-.152.404-.4.54-.744zM61.265 93v-5.04h-2.208v-1.2h5.664v1.2h-2.208V93h-1.248zM71.388 88.572l-1.26.372c-.16-.336-.396-.6-.708-.792-.312-.2-.668-.3-1.068-.3-.56 0-1.032.196-1.416.588-.376.392-.564.872-.564 1.44s.188 1.052.564 1.452c.384.384.856.576 1.416.576.4 0 .756-.096 1.068-.288.312-.2.548-.468.708-.804l1.26.372a3.12 3.12 0 01-1.188 1.44c-.536.352-1.152.528-1.848.528-.936 0-1.716-.312-2.34-.936-.624-.624-.936-1.404-.936-2.34 0-.936.312-1.716.936-2.34.624-.624 1.404-.936 2.34-.936.696 0 1.312.18 1.848.54.544.352.94.828 1.188 1.428zM74.097 93v-5.04h-2.208v-1.2h5.664v1.2h-2.208V93h-1.248zM78.453 86.76h3.288c.488 0 .928.14 1.32.42.384.28.596.656.636 1.128 0 .592-.196 1.048-.588 1.368.592.352.888.836.888 1.452 0 .544-.192.992-.576 1.344-.376.352-.852.528-1.428.528h-3.54v-6.24zm1.248 3.528V91.8h2.292c.2 0 .364-.072.492-.216a.756.756 0 00.204-.54.756.756 0 00-.204-.54.629.629 0 00-.492-.216h-2.292zm2.04-2.328h-2.04v1.284h2.04a.633.633 0 00.66-.648.598.598 0 00-.192-.456.633.633 0 00-.468-.18zM86.564 93.528l.276-.684-2.436-6.084h1.284l1.776 4.536L89.3 86.76h1.284l-2.94 7.188c-.248.608-.572 1.052-.972 1.332s-.912.42-1.536.42h-.264v-1.2h.264c.368 0 .664-.076.888-.228.224-.152.404-.4.54-.744zM97.442 90.336h-5.184c.096.488.332.888.708 1.2a2.12 2.12 0 001.356.456c.704 0 1.256-.26 1.656-.78l1.224.372a3.08 3.08 0 01-1.2 1.152 3.4 3.4 0 01-1.68.42c-.96 0-1.756-.312-2.388-.936-.64-.624-.96-1.404-.96-2.34 0-.928.308-1.708.924-2.34.624-.624 1.4-.936 2.328-.936.928 0 1.696.312 2.304.936.624.624.936 1.404.936 2.34 0 .032-.008.184-.024.456zm-5.172-.996h3.912a1.98 1.98 0 00-.72-1.128 1.972 1.972 0 00-1.272-.444c-.456 0-.864.148-1.224.444a2.03 2.03 0 00-.696 1.128zM99.995 93v-5.04h-2.208v-1.2h5.664v1.2h-2.208V93h-1.248z" fill="#99A7B5"/></svg>