<?xml version="1.0" standalone="no"?>
<!DOCTYPE svg PUBLIC "-//W3C//DTD SVG 20010904//EN"
 "http://www.w3.org/TR/2001/REC-SVG-20010904/DTD/svg10.dtd">
<svg version="1.0" xmlns="http://www.w3.org/2000/svg"
 width="500.000000pt" height="500.000000pt" viewBox="0 0 500.000000 500.000000"
 preserveAspectRatio="xMidYMid meet">
<metadata>
Created by potrace 1.11, written by Peter Selinger 2001-2013
</metadata>
<g transform="translate(0.000000,500.000000) scale(0.100000,-0.100000)"
fill="#000000" stroke="none">
<path d="M1899 4296 c-2 -2 -40 -7 -85 -10 -44 -4 -90 -8 -101 -10 -11 -3 -38
-7 -59 -11 -85 -13 -103 -17 -204 -42 -282 -69 -548 -194 -765 -356 -72 -55
-270 -244 -321 -307 -11 -14 -50 -70 -87 -126 -141 -212 -229 -454 -265 -729
-10 -69 -8 -344 2 -435 28 -257 147 -552 312 -775 53 -73 63 -84 130 -157 298
-320 777 -553 1264 -614 30 -3 69 -9 85 -12 17 -2 449 -7 960 -9 l930 -4 -80
82 c-107 109 -104 106 -156 174 -181 238 -236 465 -185 750 7 37 19 80 25 90
3 6 7 19 8 30 2 10 12 34 23 52 10 18 16 34 12 37 -4 2 -293 4 -642 4 -689 0
-731 2 -865 37 -159 42 -312 157 -368 275 -79 167 -79 376 0 539 48 98 204
230 295 250 4 1 27 9 50 17 52 19 120 32 207 41 36 4 722 7 1524 7 l1457 1 0
608 0 607 -1549 0 c-851 0 -1550 -2 -1552 -4z"/>
<path d="M3905 1908 c-164 -54 -257 -170 -278 -348 -8 -64 12 -161 47 -234 62
-128 162 -231 529 -545 109 -93 117 -95 178 -37 20 19 71 64 115 101 294 249
400 362 462 493 30 63 35 85 38 160 4 139 -29 230 -114 318 -96 99 -263 130
-368 69 -49 -29 -119 -94 -172 -160 -31 -39 -32 -39 -46 -20 -69 94 -140 160
-211 193 -37 18 -140 23 -180 10z"/>
</g>
</svg>
